# MagicaVoxel @ Ephtracy

# group
g Ammo_Crate

# material
mtllib Ammo_Crate.mtl
usemtl palette

# normals
vn -1 0 0
vn 1 0 0
vn 0 0 1
vn 0 0 -1
vn 0 -1 0
vn 0 1 0

# texcoords
vt 0.673828 0.5
vt 0.677734 0.5

# verts
v -6 0 3
v -6 0 -3
v -6 6 3
v -6 6 -3
v -6 7 3
v -6 7 -3
v -6 8 3
v -6 8 -3
v 6 0 3
v 6 0 -3
v 6 6 3
v 6 6 -3
v 6 7 3
v 6 7 -3
v 6 8 3
v 6 8 -3
v -6 0 3
v -6 6 3
v -6 7 3
v -6 8 3
v -5 1 3
v -5 6 3
v -4 1 3
v -4 6 3
v 6 0 3
v 6 6 3
v 6 7 3
v 6 8 3
v -6 0 -3
v -6 6 -3
v -6 7 -3
v -6 8 -3
v -5 6 -3
v -5 7 -3
v 5 6 -3
v 5 7 -3
v 6 0 -3
v 6 6 -3
v 6 7 -3
v 6 8 -3
v -6 0 3
v 6 0 3
v -6 0 -3
v 6 0 -3
v -6 8 3
v 6 8 3
v -5 8 2
v -3 8 2
v 2 8 2
v 5 8 2
v 2 8 1
v 5 8 1
v 4 8 -0
v 5 8 -0
v -5 8 -2
v -3 8 -2
v 4 8 -2
v 5 8 -2
v -6 8 -3
v 6 8 -3

# faces
f 3/2/1 2/2/1 1/2/1
f 4/2/1 2/2/1 3/2/1
f 5/1/1 4/1/1 3/1/1
f 6/1/1 4/1/1 5/1/1
f 7/2/1 6/2/1 5/2/1
f 8/2/1 6/2/1 7/2/1
f 9/2/2 10/2/2 11/2/2
f 11/2/2 10/2/2 12/2/2
f 11/1/2 12/1/2 13/1/2
f 13/1/2 12/1/2 14/1/2
f 13/2/2 14/2/2 15/2/2
f 15/2/2 14/2/2 16/2/2
f 21/2/3 18/2/3 17/2/3
f 22/1/3 19/1/3 18/1/3
f 22/2/3 18/2/3 21/2/3
f 23/2/3 21/2/3 17/2/3
f 23/1/3 22/1/3 21/1/3
f 24/1/3 19/1/3 22/1/3
f 24/1/3 22/1/3 23/1/3
f 25/2/3 23/2/3 17/2/3
f 25/2/3 24/2/3 23/2/3
f 26/1/3 19/1/3 24/1/3
f 26/2/3 24/2/3 25/2/3
f 27/2/3 20/2/3 19/2/3
f 27/1/3 19/1/3 26/1/3
f 28/2/3 20/2/3 27/2/3
f 29/2/4 30/2/4 33/2/4
f 30/1/4 31/1/4 33/1/4
f 31/2/4 32/2/4 34/2/4
f 33/1/4 31/1/4 34/1/4
f 29/2/4 33/2/4 35/2/4
f 33/2/4 34/2/4 35/2/4
f 34/2/4 32/2/4 36/2/4
f 35/2/4 34/2/4 36/2/4
f 29/2/4 35/2/4 37/2/4
f 35/1/4 36/1/4 38/1/4
f 37/2/4 35/2/4 38/2/4
f 36/2/4 32/2/4 39/2/4
f 38/1/4 36/1/4 39/1/4
f 39/2/4 32/2/4 40/2/4
f 43/2/5 42/2/5 41/2/5
f 44/2/5 42/2/5 43/2/5
f 45/2/6 46/2/6 47/2/6
f 47/2/6 46/2/6 48/2/6
f 48/2/6 46/2/6 49/2/6
f 49/2/6 46/2/6 50/2/6
f 48/2/6 49/2/6 51/2/6
f 49/1/6 50/1/6 51/1/6
f 50/2/6 46/2/6 52/2/6
f 51/1/6 50/1/6 52/1/6
f 51/2/6 52/2/6 53/2/6
f 52/2/6 46/2/6 54/2/6
f 53/2/6 52/2/6 54/2/6
f 45/2/6 47/2/6 55/2/6
f 47/1/6 48/1/6 55/1/6
f 48/2/6 51/2/6 56/2/6
f 55/1/6 48/1/6 56/1/6
f 51/2/6 53/2/6 56/2/6
f 53/1/6 54/1/6 57/1/6
f 56/2/6 53/2/6 57/2/6
f 54/2/6 46/2/6 58/2/6
f 57/1/6 54/1/6 58/1/6
f 56/2/6 57/2/6 59/2/6
f 55/2/6 56/2/6 59/2/6
f 57/2/6 58/2/6 59/2/6
f 45/2/6 55/2/6 59/2/6
f 58/2/6 46/2/6 60/2/6
f 59/2/6 58/2/6 60/2/6
