# MagicaVoxel @ Ephtracy

# group
g television

# material
mtllib television.mtl
usemtl palette

# normals
vn -1 0 0
vn 1 0 0
vn 0 0 1
vn 0 0 -1
vn 0 -1 0
vn 0 1 0

# texcoords
vt 0.759766 0.5
vt 0.810547 0.5
vt 0.982422 0.5
vt 0.990234 0.5
vt 0.994141 0.5

# verts
v -7 0 6
v -7 0 -6
v -7 12 6
v -7 12 -6
v 7 0 6
v 7 0 -6
v 7 12 6
v 7 12 -6
v -7 0 6
v -7 12 6
v -6 1 6
v -6 2 6
v -6 3 6
v -6 11 6
v -5 4 6
v -5 10 6
v -4 1 6
v -4 2 6
v -3 1 6
v -3 2 6
v 0 1 6
v 0 2 6
v 1 1 6
v 1 2 6
v 2 1 6
v 2 2 6
v 3 1 6
v 3 2 6
v 4 1 6
v 4 2 6
v 5 1 6
v 5 2 6
v 5 4 6
v 5 10 6
v 6 1 6
v 6 2 6
v 6 3 6
v 6 11 6
v 7 0 6
v 7 12 6
v -7 0 -6
v -7 12 -6
v -1 4 -6
v -1 8 -6
v 0 5 -6
v 0 7 -6
v 1 5 -6
v 1 7 -6
v 2 4 -6
v 2 8 -6
v 7 0 -6
v 7 12 -6
v -7 0 6
v 7 0 6
v -7 0 -6
v 7 0 -6
v -7 12 6
v 7 12 6
v -7 12 -6
v 7 12 -6

# faces
f 3/2/1 2/2/1 1/2/1
f 4/2/1 2/2/1 3/2/1
f 5/2/2 6/2/2 7/2/2
f 7/2/2 6/2/2 8/2/2
f 11/2/3 10/2/3 9/2/3
f 12/2/3 10/2/3 11/2/3
f 13/2/3 10/2/3 12/2/3
f 14/2/3 10/2/3 13/2/3
f 15/5/3 14/5/3 13/5/3
f 16/5/3 14/5/3 15/5/3
f 17/2/3 11/2/3 9/2/3
f 17/4/3 12/4/3 11/4/3
f 18/2/3 13/2/3 12/2/3
f 18/4/3 12/4/3 17/4/3
f 19/2/3 17/2/3 9/2/3
f 19/2/3 18/2/3 17/2/3
f 20/2/3 13/2/3 18/2/3
f 20/2/3 18/2/3 19/2/3
f 21/2/3 19/2/3 9/2/3
f 21/4/3 20/4/3 19/4/3
f 22/2/3 13/2/3 20/2/3
f 22/4/3 20/4/3 21/4/3
f 23/2/3 21/2/3 9/2/3
f 23/2/3 22/2/3 21/2/3
f 24/2/3 13/2/3 22/2/3
f 24/2/3 22/2/3 23/2/3
f 25/2/3 23/2/3 9/2/3
f 25/4/3 24/4/3 23/4/3
f 26/2/3 13/2/3 24/2/3
f 26/4/3 24/4/3 25/4/3
f 27/2/3 25/2/3 9/2/3
f 27/2/3 26/2/3 25/2/3
f 28/2/3 13/2/3 26/2/3
f 28/2/3 26/2/3 27/2/3
f 29/2/3 27/2/3 9/2/3
f 29/4/3 28/4/3 27/4/3
f 30/2/3 13/2/3 28/2/3
f 30/4/3 28/4/3 29/4/3
f 31/2/3 29/2/3 9/2/3
f 31/2/3 30/2/3 29/2/3
f 32/2/3 13/2/3 30/2/3
f 32/2/3 30/2/3 31/2/3
f 33/3/3 16/3/3 15/3/3
f 33/5/3 15/5/3 13/5/3
f 34/5/3 14/5/3 16/5/3
f 34/3/3 16/3/3 33/3/3
f 35/2/3 31/2/3 9/2/3
f 35/4/3 32/4/3 31/4/3
f 36/2/3 13/2/3 32/2/3
f 36/4/3 32/4/3 35/4/3
f 37/5/3 33/5/3 13/5/3
f 37/2/3 13/2/3 36/2/3
f 37/5/3 34/5/3 33/5/3
f 38/5/3 14/5/3 34/5/3
f 38/5/3 34/5/3 37/5/3
f 38/2/3 10/2/3 14/2/3
f 39/2/3 36/2/3 35/2/3
f 39/2/3 35/2/3 9/2/3
f 39/2/3 38/2/3 37/2/3
f 39/2/3 37/2/3 36/2/3
f 40/2/3 10/2/3 38/2/3
f 40/2/3 38/2/3 39/2/3
f 41/2/4 42/2/4 43/2/4
f 43/2/4 42/2/4 44/2/4
f 43/5/4 44/5/4 45/5/4
f 45/5/4 44/5/4 46/5/4
f 43/5/4 45/5/4 47/5/4
f 45/3/4 46/3/4 47/3/4
f 46/5/4 44/5/4 48/5/4
f 47/3/4 46/3/4 48/3/4
f 41/2/4 43/2/4 49/2/4
f 43/5/4 47/5/4 49/5/4
f 47/5/4 48/5/4 49/5/4
f 48/5/4 44/5/4 50/5/4
f 49/5/4 48/5/4 50/5/4
f 44/2/4 42/2/4 50/2/4
f 41/2/4 49/2/4 51/2/4
f 49/2/4 50/2/4 51/2/4
f 50/2/4 42/2/4 52/2/4
f 51/2/4 50/2/4 52/2/4
f 55/2/5 54/2/5 53/2/5
f 56/2/5 54/2/5 55/2/5
f 57/2/6 58/2/6 59/2/6
f 59/2/6 58/2/6 60/2/6
