# MagicaVoxel @ Ephtracy

# group
g coffeetable

# material
mtllib coffeetable.mtl
usemtl palette

# normals
vn -1 0 0
vn 1 0 0
vn 0 0 1
vn 0 0 -1
vn 0 -1 0
vn 0 1 0

# texcoords
vt 0.373047 0.5
vt 0.537109 0.5

# verts
v -8 0 4
v -8 0 3
v -8 0 -3
v -8 0 -4
v -8 2 3
v -8 2 2
v -8 2 -2
v -8 2 -3
v -8 3 2
v -8 3 -2
v -8 5 4
v -8 5 -4
v 6 2 4
v 6 2 3
v 6 2 -3
v 6 2 -4
v 6 3 4
v 6 3 3
v 6 3 2
v 6 3 -2
v 6 3 -3
v 6 3 -4
v 6 4 3
v 6 4 2
v 6 4 -2
v 6 4 -3
v 7 0 4
v 7 0 3
v 7 0 -3
v 7 0 -4
v 7 2 4
v 7 2 3
v 7 2 2
v 7 2 -2
v 7 2 -3
v 7 2 -4
v 7 3 3
v 7 3 2
v 7 3 -2
v 7 3 -3
v 7 4 2
v 7 4 -2
v -7 0 4
v -7 0 3
v -7 0 -3
v -7 0 -4
v -7 2 4
v -7 2 3
v -7 2 2
v -7 2 -2
v -7 2 -3
v -7 2 -4
v -7 3 3
v -7 3 2
v -7 3 -2
v -7 3 -3
v -7 4 2
v -7 4 -2
v -6 2 4
v -6 2 3
v -6 2 -3
v -6 2 -4
v -6 3 4
v -6 3 3
v -6 3 2
v -6 3 -2
v -6 3 -3
v -6 3 -4
v -6 4 3
v -6 4 2
v -6 4 -2
v -6 4 -3
v 8 0 4
v 8 0 3
v 8 0 -3
v 8 0 -4
v 8 2 3
v 8 2 2
v 8 2 -2
v 8 2 -3
v 8 3 2
v 8 3 -2
v 8 5 4
v 8 5 -4
v -8 0 4
v -8 5 4
v -7 0 4
v -7 2 4
v -6 2 4
v -6 3 4
v 6 2 4
v 6 3 4
v 7 0 4
v 7 2 4
v 8 0 4
v 8 5 4
v -8 2 -2
v -8 3 -2
v -7 2 -2
v -7 3 -2
v -7 4 -2
v -6 3 -2
v -6 4 -2
v 6 3 -2
v 6 4 -2
v 7 2 -2
v 7 3 -2
v 7 4 -2
v 8 2 -2
v 8 3 -2
v -8 0 -3
v -8 2 -3
v -7 0 -3
v -7 2 -3
v -7 3 -3
v -6 2 -3
v -6 3 -3
v -6 4 -3
v 6 2 -3
v 6 3 -3
v 6 4 -3
v 7 0 -3
v 7 2 -3
v 7 3 -3
v 8 0 -3
v 8 2 -3
v -8 0 3
v -8 2 3
v -7 0 3
v -7 2 3
v -7 3 3
v -6 2 3
v -6 3 3
v -6 4 3
v 6 2 3
v 6 3 3
v 6 4 3
v 7 0 3
v 7 2 3
v 7 3 3
v 8 0 3
v 8 2 3
v -8 2 2
v -8 3 2
v -7 2 2
v -7 3 2
v -7 4 2
v -6 3 2
v -6 4 2
v 6 3 2
v 6 4 2
v 7 2 2
v 7 3 2
v 7 4 2
v 8 2 2
v 8 3 2
v -8 0 -4
v -8 5 -4
v -7 0 -4
v -7 2 -4
v -6 2 -4
v -6 3 -4
v 6 2 -4
v 6 3 -4
v 7 0 -4
v 7 2 -4
v 8 0 -4
v 8 5 -4
v -8 0 4
v -7 0 4
v 7 0 4
v 8 0 4
v -8 0 3
v -7 0 3
v 7 0 3
v 8 0 3
v -8 0 -3
v -7 0 -3
v 7 0 -3
v 8 0 -3
v -8 0 -4
v -7 0 -4
v 7 0 -4
v 8 0 -4
v -7 2 4
v -6 2 4
v 6 2 4
v 7 2 4
v -8 2 3
v -7 2 3
v -6 2 3
v 6 2 3
v 7 2 3
v 8 2 3
v -8 2 2
v -7 2 2
v 7 2 2
v 8 2 2
v -8 2 -2
v -7 2 -2
v 7 2 -2
v 8 2 -2
v -8 2 -3
v -7 2 -3
v -6 2 -3
v 6 2 -3
v 7 2 -3
v 8 2 -3
v -7 2 -4
v -6 2 -4
v 6 2 -4
v 7 2 -4
v -6 3 4
v 6 3 4
v -7 3 3
v -6 3 3
v 6 3 3
v 7 3 3
v -8 3 2
v -7 3 2
v -6 3 2
v 6 3 2
v 7 3 2
v 8 3 2
v -8 3 -2
v -7 3 -2
v -6 3 -2
v 6 3 -2
v 7 3 -2
v 8 3 -2
v -7 3 -3
v -6 3 -3
v 6 3 -3
v 7 3 -3
v -6 3 -4
v 6 3 -4
v -6 4 3
v 6 4 3
v -7 4 2
v -6 4 2
v -5 4 2
v -4 4 2
v -3 4 2
v -2 4 2
v -1 4 2
v 1 4 2
v 2 4 2
v 3 4 2
v 4 4 2
v 5 4 2
v 6 4 2
v 7 4 2
v -6 4 1
v -5 4 1
v -4 4 1
v -3 4 1
v -2 4 1
v -1 4 1
v 1 4 1
v 2 4 1
v 3 4 1
v 4 4 1
v 5 4 1
v 6 4 1
v -6 4 -1
v -5 4 -1
v -4 4 -1
v -3 4 -1
v -2 4 -1
v -1 4 -1
v 1 4 -1
v 2 4 -1
v 3 4 -1
v 4 4 -1
v 5 4 -1
v 6 4 -1
v -7 4 -2
v -6 4 -2
v -5 4 -2
v -4 4 -2
v -3 4 -2
v -2 4 -2
v -1 4 -2
v 1 4 -2
v 2 4 -2
v 3 4 -2
v 4 4 -2
v 5 4 -2
v 6 4 -2
v 7 4 -2
v -6 4 -3
v 6 4 -3
v -8 5 4
v 8 5 4
v -7 5 3
v 7 5 3
v -6 5 2
v -5 5 2
v -4 5 2
v -3 5 2
v -2 5 2
v -1 5 2
v 1 5 2
v 2 5 2
v 3 5 2
v 4 5 2
v 5 5 2
v 6 5 2
v -6 5 1
v -5 5 1
v -4 5 1
v -3 5 1
v -2 5 1
v -1 5 1
v 1 5 1
v 2 5 1
v 3 5 1
v 4 5 1
v 5 5 1
v 6 5 1
v -6 5 -1
v -5 5 -1
v -4 5 -1
v -3 5 -1
v -2 5 -1
v -1 5 -1
v 1 5 -1
v 2 5 -1
v 3 5 -1
v 4 5 -1
v 5 5 -1
v 6 5 -1
v -6 5 -2
v -5 5 -2
v -4 5 -2
v -3 5 -2
v -2 5 -2
v -1 5 -2
v 1 5 -2
v 2 5 -2
v 3 5 -2
v 4 5 -2
v 5 5 -2
v 6 5 -2
v -7 5 -3
v 7 5 -3
v -8 5 -4
v 8 5 -4

# faces
f 5/2/1 2/2/1 1/2/1
f 8/2/1 4/2/1 3/2/1
f 9/2/1 6/2/1 5/2/1
f 10/2/1 8/2/1 7/2/1
f 11/2/1 9/2/1 5/2/1
f 11/2/1 10/2/1 9/2/1
f 11/2/1 5/2/1 1/2/1
f 12/2/1 8/2/1 10/2/1
f 12/2/1 10/2/1 11/2/1
f 12/2/1 4/2/1 8/2/1
f 17/2/1 14/2/1 13/2/1
f 18/2/1 14/2/1 17/2/1
f 21/2/1 16/2/1 15/2/1
f 22/2/1 16/2/1 21/2/1
f 23/2/1 19/2/1 18/2/1
f 24/2/1 19/2/1 23/2/1
f 25/2/1 21/2/1 20/2/1
f 26/2/1 21/2/1 25/2/1
f 31/2/1 28/2/1 27/2/1
f 32/2/1 28/2/1 31/2/1
f 35/2/1 30/2/1 29/2/1
f 36/2/1 30/2/1 35/2/1
f 37/2/1 33/2/1 32/2/1
f 38/2/1 33/2/1 37/2/1
f 39/2/1 35/2/1 34/2/1
f 40/2/1 35/2/1 39/2/1
f 41/2/1 39/2/1 38/2/1
f 42/2/1 39/2/1 41/2/1
f 43/2/2 44/2/2 47/2/2
f 47/2/2 44/2/2 48/2/2
f 45/2/2 46/2/2 51/2/2
f 51/2/2 46/2/2 52/2/2
f 48/2/2 49/2/2 53/2/2
f 53/2/2 49/2/2 54/2/2
f 50/2/2 51/2/2 55/2/2
f 55/2/2 51/2/2 56/2/2
f 54/2/2 55/2/2 57/2/2
f 57/2/2 55/2/2 58/2/2
f 59/2/2 60/2/2 63/2/2
f 63/2/2 60/2/2 64/2/2
f 61/2/2 62/2/2 67/2/2
f 67/2/2 62/2/2 68/2/2
f 64/2/2 65/2/2 69/2/2
f 69/2/2 65/2/2 70/2/2
f 66/2/2 67/2/2 71/2/2
f 71/2/2 67/2/2 72/2/2
f 73/2/2 74/2/2 77/2/2
f 75/2/2 76/2/2 80/2/2
f 77/2/2 78/2/2 81/2/2
f 79/2/2 80/2/2 82/2/2
f 77/2/2 81/2/2 83/2/2
f 81/2/2 82/2/2 83/2/2
f 73/2/2 77/2/2 83/2/2
f 82/2/2 80/2/2 84/2/2
f 83/2/2 82/2/2 84/2/2
f 80/2/2 76/2/2 84/2/2
f 87/2/3 86/2/3 85/2/3
f 88/2/3 86/2/3 87/2/3
f 89/2/3 86/2/3 88/2/3
f 90/2/3 86/2/3 89/2/3
f 92/2/3 86/2/3 90/2/3
f 94/2/3 92/2/3 91/2/3
f 95/2/3 94/2/3 93/2/3
f 96/2/3 86/2/3 92/2/3
f 96/2/3 94/2/3 95/2/3
f 96/2/3 92/2/3 94/2/3
f 99/2/3 98/2/3 97/2/3
f 100/2/3 98/2/3 99/2/3
f 102/2/3 101/2/3 100/2/3
f 103/2/3 101/2/3 102/2/3
f 107/2/3 105/2/3 104/2/3
f 108/2/3 105/2/3 107/2/3
f 109/2/3 107/2/3 106/2/3
f 110/2/3 107/2/3 109/2/3
f 113/2/3 112/2/3 111/2/3
f 114/2/3 112/2/3 113/2/3
f 116/2/3 115/2/3 114/2/3
f 117/2/3 115/2/3 116/2/3
f 120/2/3 118/2/3 117/2/3
f 121/2/3 118/2/3 120/2/3
f 123/2/3 120/2/3 119/2/3
f 124/2/3 120/2/3 123/2/3
f 125/2/3 123/2/3 122/2/3
f 126/2/3 123/2/3 125/2/3
f 127/2/4 128/2/4 129/2/4
f 129/2/4 128/2/4 130/2/4
f 130/2/4 131/2/4 132/2/4
f 132/2/4 131/2/4 133/2/4
f 133/2/4 134/2/4 136/2/4
f 136/2/4 134/2/4 137/2/4
f 135/2/4 136/2/4 139/2/4
f 139/2/4 136/2/4 140/2/4
f 138/2/4 139/2/4 141/2/4
f 141/2/4 139/2/4 142/2/4
f 143/2/4 144/2/4 145/2/4
f 145/2/4 144/2/4 146/2/4
f 146/2/4 147/2/4 148/2/4
f 148/2/4 147/2/4 149/2/4
f 150/2/4 151/2/4 153/2/4
f 153/2/4 151/2/4 154/2/4
f 152/2/4 153/2/4 155/2/4
f 155/2/4 153/2/4 156/2/4
f 157/2/4 158/2/4 159/2/4
f 159/2/4 158/2/4 160/2/4
f 160/2/4 158/2/4 161/2/4
f 161/2/4 158/2/4 162/2/4
f 162/2/4 158/2/4 164/2/4
f 163/2/4 164/2/4 166/2/4
f 165/2/4 166/2/4 167/2/4
f 164/2/4 158/2/4 168/2/4
f 167/2/4 166/2/4 168/2/4
f 166/2/4 164/2/4 168/2/4
f 173/2/5 170/2/5 169/2/5
f 174/2/5 170/2/5 173/2/5
f 175/2/5 172/2/5 171/2/5
f 176/2/5 172/2/5 175/2/5
f 181/2/5 178/2/5 177/2/5
f 182/2/5 178/2/5 181/2/5
f 183/2/5 180/2/5 179/2/5
f 184/2/5 180/2/5 183/2/5
f 190/2/5 186/2/5 185/2/5
f 191/2/5 186/2/5 190/2/5
f 192/2/5 188/2/5 187/2/5
f 193/2/5 188/2/5 192/2/5
f 195/2/5 190/2/5 189/2/5
f 196/2/5 190/2/5 195/2/5
f 197/2/5 194/2/5 193/2/5
f 198/2/5 194/2/5 197/2/5
f 203/2/5 200/2/5 199/2/5
f 204/2/5 200/2/5 203/2/5
f 207/2/5 202/2/5 201/2/5
f 208/2/5 202/2/5 207/2/5
f 209/2/5 205/2/5 204/2/5
f 210/2/5 205/2/5 209/2/5
f 211/2/5 207/2/5 206/2/5
f 212/2/5 207/2/5 211/2/5
f 216/2/5 214/2/5 213/2/5
f 217/2/5 214/2/5 216/2/5
f 220/2/5 216/2/5 215/2/5
f 221/2/5 216/2/5 220/2/5
f 222/2/5 218/2/5 217/2/5
f 223/2/5 218/2/5 222/2/5
f 225/2/5 220/2/5 219/2/5
f 226/2/5 220/2/5 225/2/5
f 229/2/5 224/2/5 223/2/5
f 230/2/5 224/2/5 229/2/5
f 231/2/5 227/2/5 226/2/5
f 232/2/5 227/2/5 231/2/5
f 233/2/5 229/2/5 228/2/5
f 234/2/5 229/2/5 233/2/5
f 235/2/5 233/2/5 232/2/5
f 236/2/5 233/2/5 235/2/5
f 240/1/5 238/1/5 237/1/5
f 241/1/5 238/1/5 240/1/5
f 242/1/5 238/1/5 241/1/5
f 243/1/5 238/1/5 242/1/5
f 244/1/5 238/1/5 243/1/5
f 245/1/5 238/1/5 244/1/5
f 246/1/5 238/1/5 245/1/5
f 247/1/5 238/1/5 246/1/5
f 248/1/5 238/1/5 247/1/5
f 249/1/5 238/1/5 248/1/5
f 250/1/5 238/1/5 249/1/5
f 251/1/5 238/1/5 250/1/5
f 253/1/5 240/1/5 239/1/5
f 253/2/5 241/2/5 240/2/5
f 254/1/5 242/1/5 241/1/5
f 254/2/5 241/2/5 253/2/5
f 255/2/5 243/2/5 242/2/5
f 255/1/5 242/1/5 254/1/5
f 256/1/5 244/1/5 243/1/5
f 256/2/5 243/2/5 255/2/5
f 257/2/5 245/2/5 244/2/5
f 257/1/5 244/1/5 256/1/5
f 258/1/5 246/1/5 245/1/5
f 258/2/5 245/2/5 257/2/5
f 259/2/5 247/2/5 246/2/5
f 259/1/5 246/1/5 258/1/5
f 260/1/5 248/1/5 247/1/5
f 260/2/5 247/2/5 259/2/5
f 261/2/5 249/2/5 248/2/5
f 261/1/5 248/1/5 260/1/5
f 262/1/5 250/1/5 249/1/5
f 262/2/5 249/2/5 261/2/5
f 263/2/5 251/2/5 250/2/5
f 263/1/5 250/1/5 262/1/5
f 264/1/5 252/1/5 251/1/5
f 264/2/5 251/2/5 263/2/5
f 265/1/5 253/1/5 239/1/5
f 265/1/5 254/1/5 253/1/5
f 266/2/5 255/2/5 254/2/5
f 266/1/5 254/1/5 265/1/5
f 267/1/5 256/1/5 255/1/5
f 267/2/5 255/2/5 266/2/5
f 267/1/5 257/1/5 256/1/5
f 267/1/5 258/1/5 257/1/5
f 268/1/5 258/1/5 267/1/5
f 269/1/5 258/1/5 268/1/5
f 270/2/5 259/2/5 258/2/5
f 270/1/5 258/1/5 269/1/5
f 271/1/5 262/1/5 261/1/5
f 271/2/5 259/2/5 270/2/5
f 271/1/5 261/1/5 260/1/5
f 271/1/5 260/1/5 259/1/5
f 272/1/5 262/1/5 271/1/5
f 273/1/5 262/1/5 272/1/5
f 274/2/5 263/2/5 262/2/5
f 274/1/5 262/1/5 273/1/5
f 275/1/5 264/1/5 263/1/5
f 275/2/5 263/2/5 274/2/5
f 276/1/5 252/1/5 264/1/5
f 276/1/5 264/1/5 275/1/5
f 277/1/5 265/1/5 239/1/5
f 278/2/5 266/2/5 265/2/5
f 278/1/5 265/1/5 277/1/5
f 279/1/5 267/1/5 266/1/5
f 279/2/5 266/2/5 278/2/5
f 280/2/5 268/2/5 267/2/5
f 280/1/5 267/1/5 279/1/5
f 281/1/5 269/1/5 268/1/5
f 281/2/5 268/2/5 280/2/5
f 282/2/5 270/2/5 269/2/5
f 282/1/5 269/1/5 281/1/5
f 283/1/5 271/1/5 270/1/5
f 283/2/5 270/2/5 282/2/5
f 284/2/5 272/2/5 271/2/5
f 284/1/5 271/1/5 283/1/5
f 285/1/5 273/1/5 272/1/5
f 285/2/5 272/2/5 284/2/5
f 286/2/5 274/2/5 273/2/5
f 286/1/5 273/1/5 285/1/5
f 287/1/5 275/1/5 274/1/5
f 287/2/5 274/2/5 286/2/5
f 288/2/5 276/2/5 275/2/5
f 288/1/5 275/1/5 287/1/5
f 289/1/5 252/1/5 276/1/5
f 289/2/5 276/2/5 288/2/5
f 290/1/5 252/1/5 289/1/5
f 291/1/5 284/1/5 283/1/5
f 291/1/5 281/1/5 280/1/5
f 291/1/5 289/1/5 288/1/5
f 291/1/5 287/1/5 286/1/5
f 291/1/5 283/1/5 282/1/5
f 291/1/5 282/1/5 281/1/5
f 291/1/5 280/1/5 279/1/5
f 291/1/5 279/1/5 278/1/5
f 291/1/5 286/1/5 285/1/5
f 291/1/5 288/1/5 287/1/5
f 291/1/5 285/1/5 284/1/5
f 292/1/5 289/1/5 291/1/5
f 293/2/6 294/2/6 295/2/6
f 295/2/6 294/2/6 296/2/6
f 295/1/6 296/1/6 297/1/6
f 297/1/6 296/1/6 298/1/6
f 298/1/6 296/1/6 299/1/6
f 299/1/6 296/1/6 300/1/6
f 300/1/6 296/1/6 301/1/6
f 301/1/6 296/1/6 302/1/6
f 302/1/6 296/1/6 303/1/6
f 303/1/6 296/1/6 304/1/6
f 304/1/6 296/1/6 305/1/6
f 305/1/6 296/1/6 306/1/6
f 306/1/6 296/1/6 307/1/6
f 307/1/6 296/1/6 308/1/6
f 295/1/6 297/1/6 309/1/6
f 297/2/6 298/2/6 309/2/6
f 298/1/6 299/1/6 310/1/6
f 309/2/6 298/2/6 310/2/6
f 299/2/6 300/2/6 311/2/6
f 310/1/6 299/1/6 311/1/6
f 300/1/6 301/1/6 312/1/6
f 311/2/6 300/2/6 312/2/6
f 301/2/6 302/2/6 313/2/6
f 312/1/6 301/1/6 313/1/6
f 302/1/6 303/1/6 314/1/6
f 313/2/6 302/2/6 314/2/6
f 303/2/6 304/2/6 315/2/6
f 314/1/6 303/1/6 315/1/6
f 304/1/6 305/1/6 316/1/6
f 315/2/6 304/2/6 316/2/6
f 305/2/6 306/2/6 317/2/6
f 316/1/6 305/1/6 317/1/6
f 306/1/6 307/1/6 318/1/6
f 317/2/6 306/2/6 318/2/6
f 307/2/6 308/2/6 319/2/6
f 318/1/6 307/1/6 319/1/6
f 308/1/6 296/1/6 320/1/6
f 319/2/6 308/2/6 320/2/6
f 295/1/6 309/1/6 321/1/6
f 309/1/6 310/1/6 321/1/6
f 310/2/6 311/2/6 322/2/6
f 321/1/6 310/1/6 322/1/6
f 311/1/6 312/1/6 323/1/6
f 322/2/6 311/2/6 323/2/6
f 312/1/6 313/1/6 323/1/6
f 313/1/6 314/1/6 323/1/6
f 323/1/6 314/1/6 324/1/6
f 324/1/6 314/1/6 325/1/6
f 314/2/6 315/2/6 326/2/6
f 325/1/6 314/1/6 326/1/6
f 317/1/6 318/1/6 327/1/6
f 326/2/6 315/2/6 327/2/6
f 316/1/6 317/1/6 327/1/6
f 315/1/6 316/1/6 327/1/6
f 327/1/6 318/1/6 328/1/6
f 328/1/6 318/1/6 329/1/6
f 318/2/6 319/2/6 330/2/6
f 329/1/6 318/1/6 330/1/6
f 319/1/6 320/1/6 331/1/6
f 330/2/6 319/2/6 331/2/6
f 320/1/6 296/1/6 332/1/6
f 331/1/6 320/1/6 332/1/6
f 295/1/6 321/1/6 333/1/6
f 321/2/6 322/2/6 333/2/6
f 322/1/6 323/1/6 334/1/6
f 333/2/6 322/2/6 334/2/6
f 323/2/6 324/2/6 335/2/6
f 334/1/6 323/1/6 335/1/6
f 324/1/6 325/1/6 336/1/6
f 335/2/6 324/2/6 336/2/6
f 325/2/6 326/2/6 337/2/6
f 336/1/6 325/1/6 337/1/6
f 326/1/6 327/1/6 338/1/6
f 337/2/6 326/2/6 338/2/6
f 327/2/6 328/2/6 339/2/6
f 338/1/6 327/1/6 339/1/6
f 328/1/6 329/1/6 340/1/6
f 339/2/6 328/2/6 340/2/6
f 329/2/6 330/2/6 341/2/6
f 340/1/6 329/1/6 341/1/6
f 330/1/6 331/1/6 342/1/6
f 341/2/6 330/2/6 342/2/6
f 331/2/6 332/2/6 343/2/6
f 342/1/6 331/1/6 343/1/6
f 332/1/6 296/1/6 344/1/6
f 343/2/6 332/2/6 344/2/6
f 293/2/6 295/2/6 345/2/6
f 338/1/6 339/1/6 345/1/6
f 343/1/6 344/1/6 345/1/6
f 337/1/6 338/1/6 345/1/6
f 336/1/6 337/1/6 345/1/6
f 334/1/6 335/1/6 345/1/6
f 295/1/6 333/1/6 345/1/6
f 333/1/6 334/1/6 345/1/6
f 341/1/6 342/1/6 345/1/6
f 342/1/6 343/1/6 345/1/6
f 339/1/6 340/1/6 345/1/6
f 340/1/6 341/1/6 345/1/6
f 335/1/6 336/1/6 345/1/6
f 344/1/6 296/1/6 346/1/6
f 345/1/6 344/1/6 346/1/6
f 296/2/6 294/2/6 346/2/6
f 293/2/6 345/2/6 347/2/6
f 345/2/6 346/2/6 347/2/6
f 346/2/6 294/2/6 348/2/6
f 347/2/6 346/2/6 348/2/6
